<!DOCTYPE svg PUBLIC "-//W3C//DTD SVG 1.1//EN" "http://www.w3.org/Graphics/SVG/1.1/DTD/svg11.dtd">
<!-- Uploaded to: SVG Repo, www.svgrepo.com, Transformed by: SVG Repo Mixer Tools -->
<svg height="800px" width="800px" version="1.1" id="_x32_" xmlns="http://www.w3.org/2000/svg" xmlns:xlink="http://www.w3.org/1999/xlink" viewBox="0 0 512 512" xml:space="preserve" fill="white" stroke="white">
<g id="SVGRepo_bgCarrier" stroke-width="0"/>
<g id="SVGRepo_tracerCarrier" stroke-linecap="round" stroke-linejoin="round"/>
<g id="SVGRepo_iconCarrier"> <style type="text/css"> .st0{fill:#00000;} </style> <g> <path class="st0" d="M501.988,217.869c-4.943-8.754-11.527-16.392-19.322-22.608c3.562-9.052,5.443-18.739,5.443-28.534 c0.004-13.168-3.369-26.543-10.407-38.719h0.004c-6.914-11.986-16.594-21.467-27.746-28.03c-8.642-5.092-18.173-8.432-28.034-9.911 c-1.471-9.845-4.803-19.392-9.898-28.022c-6.568-11.151-16.053-20.822-28.03-27.741h0.003 c-12.192-7.042-25.574-10.415-38.73-10.415c-9.8,0-19.479,1.884-28.538,5.438c-6.204-7.795-13.858-14.383-22.592-19.309 C282.884,3.637,269.832,0,256.003,0s-26.877,3.637-38.136,10.018c-8.742,4.926-16.392,11.514-22.591,19.309 c-9.064-3.554-18.74-5.438-28.547-5.438c-13.156,0-26.534,3.355-38.727,10.415c-11.977,6.903-21.459,16.59-28.026,27.741 c-5.101,8.63-8.432,18.176-9.904,28.022c-9.857,1.48-19.388,4.82-28.03,9.902c-11.155,6.556-20.83,16.053-27.749,28.039 c-7.035,12.176-10.407,25.551-10.403,38.719c0,9.795,1.885,19.466,5.447,28.534c-7.798,6.216-14.383,13.854-19.326,22.608 C3.635,229.119-0.002,242.163,0.002,256c-0.004,13.838,3.633,26.89,10.01,38.14c4.943,8.737,11.528,16.375,19.322,22.599 c-3.562,9.043-5.443,18.731-5.443,28.534c-0.004,13.16,3.368,26.534,10.403,38.726l-1.223-2.132l1.223,2.141 c6.919,11.968,16.594,21.458,27.745,28.022c8.642,5.092,18.177,8.415,28.034,9.886c1.472,9.87,4.803,19.4,9.904,28.038 c6.567,11.16,16.048,20.83,28.026,27.74c12.192,7.06,25.571,10.416,38.727,10.416c9.803,0,19.483-1.884,28.547-5.439 c6.199,7.787,13.854,14.384,22.591,19.326c11.258,6.365,24.31,10.002,38.136,10.002c13.829,0,26.877-3.637,38.135-10.018 c8.738-4.926,16.392-11.523,22.596-19.326c9.059,3.571,18.738,5.439,28.542,5.455c13.156,0,26.53-3.372,38.723-10.416h0.003 c11.974-6.91,21.459-16.581,28.027-27.74c5.096-8.638,8.427-18.169,9.898-28.038c9.861-1.471,19.392-4.794,28.034-9.886 c11.151-6.564,20.831-16.053,27.746-28.022c7.034-12.201,10.406-25.576,10.406-38.735c-0.004-9.804-1.884-19.491-5.443-28.534 c7.791-6.224,14.374-13.878,19.318-22.599c6.373-11.25,10.014-24.302,10.01-38.14C512.002,242.179,508.365,229.119,501.988,217.869 z M484.877,284.468c-4.753,8.407-11.56,15.524-19.726,20.649l-7.721,4.86l4.266,8.068c4.426,8.366,6.761,17.739,6.761,27.228 c-0.004,9.82-2.496,19.756-7.779,28.898c-5.194,8.994-12.374,16.012-20.698,20.913c-8.316,4.91-17.772,7.67-27.406,8.034 l-9.113,0.331l-0.34,9.108c-0.363,9.647-3.124,19.111-8.03,27.419c-4.91,8.324-11.928,15.507-20.917,20.698 c-9.15,5.282-19.07,7.762-28.898,7.762c-9.481,0-18.863-2.331-27.232-6.745l-8.072-4.265l-4.843,7.72 c-5.138,8.167-12.251,14.979-20.661,19.732c-8.415,4.753-18.087,7.464-28.464,7.464c-10.378,0-20.05-2.711-28.464-7.464 c-8.411-4.753-15.524-11.564-20.661-19.732l-4.84-7.72l-8.068,4.265c-8.37,4.414-17.76,6.745-27.241,6.745 c-9.832,0-19.752-2.48-28.903-7.762c-8.989-5.192-16.007-12.374-20.916-20.69c-4.902-8.316-7.667-17.78-8.027-27.427l-0.339-9.092 l-9.114-0.347c-9.638-0.364-19.094-3.124-27.41-8.034c-8.324-4.902-15.503-11.92-20.698-20.913 c-5.282-9.142-7.77-19.078-7.778-28.898c0-9.49,2.335-18.863,6.766-27.244l4.261-8.052l-7.72-4.86 c-8.166-5.125-14.974-12.259-19.727-20.649c-4.753-8.414-7.464-18.086-7.468-28.468c0.004-10.382,2.715-20.07,7.468-28.476 c4.754-8.407,11.561-15.516,19.727-20.649l7.725-4.852l-4.265-8.052c-4.43-8.382-6.766-17.764-6.766-27.244 c0.008-9.836,2.496-19.748,7.778-28.898c5.195-8.994,12.378-16.012,20.702-20.913c8.312-4.91,17.768-7.688,27.406-8.026 l9.114-0.348l0.339-9.117c0.36-9.639,3.125-19.095,8.027-27.41c4.909-8.316,11.927-15.498,20.92-20.698 c9.151-5.273,19.07-7.762,28.899-7.778c9.481,0,18.867,2.347,27.237,6.77l8.068,4.248l4.844-7.712 c5.133-8.168,12.25-14.979,20.661-19.732c8.414-4.744,18.086-7.456,28.464-7.456c10.377,0,20.053,2.711,28.464,7.456 c8.41,4.753,15.527,11.564,20.661,19.732l4.843,7.712l8.068-4.241c8.369-4.43,17.755-6.761,27.232-6.761 c9.828,0,19.748,2.488,28.902,7.762c8.989,5.2,16.007,12.383,20.917,20.715c4.902,8.298,7.667,17.772,8.03,27.394l0.34,9.117 l9.108,0.348c9.638,0.355,19.095,3.116,27.41,8.026c8.324,4.902,15.504,11.92,20.694,20.913l0.004,0.017 c5.283,9.134,7.77,19.045,7.779,28.882c0,9.481-2.335,18.863-6.766,27.244l-4.262,8.052l7.721,4.852 c8.166,5.134,14.974,12.242,19.726,20.649c4.749,8.423,7.46,18.094,7.465,28.476C492.337,266.399,489.626,276.07,484.877,284.468z"/> <path class="st0" d="M255.998,98.713c6.704,0,12.126-5.422,12.126-12.135c0-6.687-5.422-12.118-12.126-12.118 c-6.7,0-12.122,5.431-12.122,12.118C243.876,93.291,249.299,98.713,255.998,98.713z"/> <path class="st0" d="M255.998,413.287c-6.7,0-12.122,5.438-12.122,12.135c0,6.695,5.422,12.109,12.122,12.109 c6.704,0,12.126-5.414,12.126-12.109C268.125,418.725,262.702,413.287,255.998,413.287z"/> <path class="st0" d="M243.706,163.272c-1.735-6.481-8.382-10.316-14.85-8.58c-6.476,1.736-10.311,8.382-8.575,14.837 c1.735,6.489,8.381,10.316,14.846,8.589C241.603,176.397,245.442,169.735,243.706,163.272z"/> <path class="st0" d="M276.874,333.891c-6.476,1.728-10.316,8.373-8.58,14.837c1.736,6.473,8.382,10.316,14.85,8.58 c6.476-1.736,10.312-8.382,8.576-14.846C289.984,335.983,283.334,332.146,276.874,333.891z"/> <path class="st0" d="M178.119,235.136c1.732-6.48-2.103-13.11-8.576-14.846c-6.468-1.745-13.118,2.099-14.854,8.572 c-1.732,6.456,2.104,13.118,8.576,14.854C169.729,245.436,176.379,241.601,178.119,235.136z"/> <path class="st0" d="M348.731,268.3c-6.464-1.744-13.11,2.099-14.854,8.572c-1.728,6.472,2.108,13.11,8.58,14.854 c6.469,1.72,13.118-2.116,14.85-8.597C359.043,276.673,355.207,270.019,348.731,268.3z"/> <path class="st0" d="M181.835,313.02c-4.732,4.728-4.732,12.416,0,17.144c4.74,4.744,12.416,4.744,17.147,0 c4.741-4.728,4.741-12.416,0-17.144C194.251,308.291,186.575,308.274,181.835,313.02z"/> <path class="st0" d="M330.165,181.837c-4.741-4.728-12.416-4.728-17.148,0c-4.74,4.728-4.737,12.416,0,17.144 c4.732,4.745,12.407,4.745,17.148,0C334.898,194.252,334.898,186.556,330.165,181.837z"/> <path class="st0" d="M177.359,119.775c5.798-3.339,7.782-10.746,4.434-16.557c-3.343-5.794-10.762-7.778-16.566-4.439 c-5.798,3.356-7.786,10.771-4.435,16.582C164.134,121.147,171.556,123.132,177.359,119.775z"/> <path class="st0" d="M334.637,392.216c-5.795,3.339-7.778,10.762-4.43,16.557c3.344,5.802,10.758,7.786,16.565,4.439 c5.799-3.34,7.782-10.771,4.434-16.558C347.863,390.844,340.444,388.86,334.637,392.216z"/> <path class="st0" d="M103.217,181.804c5.807,3.339,13.222,1.356,16.569-4.447c3.344-5.802,1.36-13.226-4.434-16.565 c-5.808-3.356-13.226-1.356-16.566,4.43C95.434,171.025,97.422,178.448,103.217,181.804z"/> <path class="st0" d="M408.78,330.204c-5.803-3.339-13.221-1.364-16.569,4.44c-3.348,5.802-1.36,13.217,4.439,16.556 c5.807,3.356,13.222,1.364,16.565-4.439C416.566,340.975,414.578,333.544,408.78,330.204z"/> <path class="st0" d="M86.585,243.874c-6.7,0-12.126,5.43-12.126,12.126c0,6.696,5.427,12.118,12.126,12.118 c6.7,0,12.127-5.422,12.127-12.118C98.712,249.304,93.285,243.874,86.585,243.874z"/> <path class="st0" d="M425.415,243.874c-6.704,0-12.13,5.43-12.13,12.126c0,6.696,5.427,12.118,12.13,12.118 c6.7,0,12.126-5.422,12.126-12.118C437.541,249.304,432.115,243.874,425.415,243.874z"/> <path class="st0" d="M103.221,330.204c-5.803,3.34-7.787,10.771-4.436,16.557c3.34,5.795,10.758,7.795,16.566,4.439 c5.798-3.339,7.778-10.754,4.439-16.556C116.443,328.84,109.023,326.865,103.221,330.204z"/> <path class="st0" d="M408.784,181.804c5.79-3.356,7.782-10.762,4.43-16.582c-3.339-5.786-10.758-7.786-16.565-4.43 c-5.795,3.339-7.779,10.762-4.434,16.565C395.559,183.16,402.977,185.143,408.784,181.804z"/> <path class="st0" d="M177.363,392.216c-5.806-3.356-13.226-1.372-16.569,4.438c-3.352,5.786-1.364,13.218,4.435,16.558 c5.803,3.348,13.218,1.364,16.566-4.439C185.146,402.979,183.157,395.556,177.363,392.216z"/> <path class="st0" d="M334.641,119.775c5.802,3.356,13.222,1.372,16.569-4.414c3.344-5.811,1.364-13.226-4.439-16.582 c-5.802-3.339-13.226-1.355-16.565,4.439C326.859,109.03,328.843,116.436,334.641,119.775z"/> <path class="st0" d="M255.998,243.874c-6.7,0-12.122,5.43-12.122,12.126c0,6.696,5.422,12.118,12.122,12.118 c6.704,0,12.126-5.422,12.126-12.118C268.125,249.304,262.702,243.874,255.998,243.874z"/> </g> </g>
</svg>